name rise38.3101peak57.3503fall81.6963.mot
datacolumns 19
datarows 26
range 5.81165000000000 5.85331700000000
endheader
time	ground_force1_vx	ground_force1_vy	ground_force1_vz	ground_force1_px	ground_force1_py	ground_force1_pz	ground_force2_vx	ground_force2_vy	ground_force2_vz	ground_force2_px	ground_force2_py	ground_force2_pz	ground_torque1_x	ground_torque1_y	ground_torque1_z	ground_torque2_x	ground_torque2_y	ground_torque2_z	
5.81165000000000	-49.29621200000000	788.96810100000005	58.53871100000000	0.13191500000000	0.00000000000000	0.11909100000000	-16.65480900000000	75.03024700000000	12.43177500000000	0.37287700000000	0.00000000000000	-0.06524500000000	0.00000000000000	27.95764900000000	0.00000000000000	0.00000000000000	7.55864500000000	0.00000000000000	
5.81331600000000	-49.37067000000000	785.93277399999999	58.23678900000000	0.13141700000000	0.00000000000000	0.11907900000000	-16.69793800000000	80.17027400000001	12.71627800000000	0.37505400000000	0.00000000000000	-0.06580000000000	0.00000000000000	27.76898600000000	0.00000000000000	0.00000000000000	7.79705600000000	0.00000000000000	
5.81498000000000	-49.44375000000000	782.76102800000001	57.90460100000000	0.13093700000000	0.00000000000000	0.11906300000000	-16.54949500000000	85.10496500000001	12.88557100000000	0.37719700000000	0.00000000000000	-0.06631900000000	0.00000000000000	27.57636500000000	0.00000000000000	0.00000000000000	7.97298000000000	0.00000000000000	
5.81665400000000	-49.51612100000000	779.45376099999999	57.54212100000000	0.13047700000000	0.00000000000000	0.11904200000000	-16.23418200000000	89.88093800000000	12.95334900000000	0.37930400000000	0.00000000000000	-0.06680800000000	0.00000000000000	27.38005000000000	0.00000000000000	0.00000000000000	8.09363000000000	0.00000000000000	
5.81831700000000	-49.58844500000000	776.01200400000005	57.14938600000000	0.13003700000000	0.00000000000000	0.11901600000000	-15.77882600000000	94.55307700000000	12.93489100000000	0.38137100000000	0.00000000000000	-0.06726900000000	0.00000000000000	27.18030000000000	0.00000000000000	0.00000000000000	8.16722300000000	0.00000000000000	
5.81998000000000	-49.66137200000000	772.43691500000000	56.72649100000000	0.12961600000000	0.00000000000000	0.11898400000000	-15.21026600000000	99.17935100000000	12.84573200000000	0.38339700000000	0.00000000000000	-0.06770500000000	0.00000000000000	26.97737400000000	0.00000000000000	0.00000000000000	8.20222300000000	0.00000000000000	
5.82165100000000	-49.73553500000000	768.72977200000003	56.27359700000000	0.12921600000000	0.00000000000000	0.11894800000000	-14.55358900000000	103.81624200000000	12.70054200000000	0.38537800000000	0.00000000000000	-0.06811900000000	0.00000000000000	26.77152300000000	0.00000000000000	0.00000000000000	8.20668800000000	0.00000000000000	
5.82331600000000	-49.81154900000000	764.89196600000002	55.79092300000000	0.12883500000000	0.00000000000000	0.11890700000000	-13.83080200000000	108.51506400000000	12.51225900000000	0.38731300000000	0.00000000000000	-0.06851300000000	0.00000000000000	26.56299300000000	0.00000000000000	0.00000000000000	8.18776200000000	0.00000000000000	
5.82498200000000	-49.89000500000000	760.92498799999998	55.27875000000000	0.12847300000000	0.00000000000000	0.11886000000000	-13.05996600000000	113.31927500000000	12.29150700000000	0.38919700000000	0.00000000000000	-0.06888800000000	0.00000000000000	26.35202500000000	0.00000000000000	0.00000000000000	8.15131500000000	0.00000000000000	
5.82665300000000	-49.97146600000000	756.83042599999999	54.73741500000000	0.12813100000000	0.00000000000000	0.11880700000000	-12.25476600000000	118.26283200000000	12.04628700000000	0.39102800000000	0.00000000000000	-0.06924700000000	0.00000000000000	26.13885000000000	0.00000000000000	0.00000000000000	8.10173900000000	0.00000000000000	
5.82831100000000	-50.05646400000000	752.60995300000002	54.16731800000000	0.12780800000000	0.00000000000000	0.11874900000000	-11.42448700000000	123.36951500000001	11.78191700000000	0.39280500000000	0.00000000000000	-0.06959100000000	0.00000000000000	25.92369100000000	0.00000000000000	0.00000000000000	8.04189400000000	0.00000000000000	
5.82998500000000	-50.14549200000000	748.26531799999998	53.56891200000000	0.12750300000000	0.00000000000000	0.11868600000000	-10.57431300000000	128.65309600000001	11.50118000000000	0.39452400000000	0.00000000000000	-0.06992200000000	0.00000000000000	25.70676100000000	0.00000000000000	0.00000000000000	7.97317600000000	0.00000000000000	
5.83165200000000	-50.23900700000000	743.79833599999995	52.94270700000000	0.12721700000000	0.00000000000000	0.11861700000000	-9.70587400000000	134.11819199999999	11.20463900000000	0.39618200000000	0.00000000000000	-0.07024100000000	0.00000000000000	25.48826200000000	0.00000000000000	0.00000000000000	7.89568000000000	0.00000000000000	
5.83332000000000	-50.33741900000000	739.21088299999997	52.28926800000000	0.12694700000000	0.00000000000000	0.11854200000000	-8.81795200000000	139.76160300000001	10.89104800000000	0.39777800000000	0.00000000000000	-0.07054900000000	0.00000000000000	25.26838600000000	0.00000000000000	0.00000000000000	7.80843300000000	0.00000000000000	
5.83498000000000	-50.44109000000000	734.50487999999996	51.60921100000000	0.12669400000000	0.00000000000000	0.11846100000000	-7.90726100000000	145.57394800000000	10.55783400000000	0.39931000000000	0.00000000000000	-0.07084800000000	0.00000000000000	25.04731400000000	0.00000000000000	0.00000000000000	7.70966400000000	0.00000000000000	
5.83666000000000	-50.55033100000000	729.68228899999997	50.90320400000000	0.12645600000000	0.00000000000000	0.11837500000000	-6.96923600000000	151.54143400000001	10.20157700000000	0.40077500000000	0.00000000000000	-0.07113700000000	0.00000000000000	24.82521200000000	0.00000000000000	0.00000000000000	7.59709300000000	0.00000000000000	
5.83831200000000	-50.66539600000000	724.74510099999998	50.17196300000000	0.12623400000000	0.00000000000000	0.11828300000000	-5.99876900000000	157.64757499999999	9.81846700000000	0.40217200000000	0.00000000000000	-0.07141800000000	0.00000000000000	24.60223500000000	0.00000000000000	0.00000000000000	7.46819600000000	0.00000000000000	
5.83997900000000	-50.78647800000000	719.69532700000002	49.41625300000000	0.12602400000000	0.00000000000000	0.11818500000000	-4.99083800000000	163.87477300000000	9.40471600000000	0.40349900000000	0.00000000000000	-0.07169200000000	0.00000000000000	24.37852500000000	0.00000000000000	0.00000000000000	7.32045100000000	0.00000000000000	
5.84165100000000	-50.91371100000000	714.53498999999999	48.63688300000000	0.12582800000000	0.00000000000000	0.11808200000000	-3.94101800000000	170.20565500000001	8.95687400000000	0.40475400000000	0.00000000000000	-0.07195900000000	0.00000000000000	24.15421100000000	0.00000000000000	0.00000000000000	7.15154100000000	0.00000000000000	
5.84331300000000	-51.04715900000000	709.26611500000001	47.83470500000000	0.12564200000000	0.00000000000000	0.11797200000000	-2.84584900000000	176.62411200000000	8.47208500000000	0.40593600000000	0.00000000000000	-0.07222000000000	0.00000000000000	23.92940600000000	0.00000000000000	0.00000000000000	6.95950200000000	0.00000000000000	
5.84498700000000	-51.18681900000000	703.89072099999998	47.01061300000000	0.12546700000000	0.00000000000000	0.11785800000000	-1.70306100000000	183.11603700000001	7.94823600000000	0.40704500000000	0.00000000000000	-0.07247500000000	0.00000000000000	23.70421200000000	0.00000000000000	0.00000000000000	6.74282900000000	0.00000000000000	
5.84665200000000	-51.33261400000000	698.41081099999997	46.16553900000000	0.12530100000000	0.00000000000000	0.11773700000000	-0.51167800000000	189.66975299999999	7.38404000000000	0.40807800000000	0.00000000000000	-0.07272500000000	0.00000000000000	23.47871600000000	0.00000000000000	0.00000000000000	6.50052800000000	0.00000000000000	
5.84831300000000	-51.48439500000000	692.82836799999995	45.30045100000000	0.12514200000000	0.00000000000000	0.11761100000000	0.72800500000000	196.27616800000001	6.77903900000000	0.40903500000000	0.00000000000000	-0.07297000000000	0.00000000000000	23.25299200000000	0.00000000000000	0.00000000000000	6.23212300000000	0.00000000000000	
5.84998400000000	-51.64193700000000	687.14534200000003	44.41635200000000	0.12498900000000	0.00000000000000	0.11747900000000	2.01451600000000	202.92869600000000	6.13355400000000	0.40991500000000	0.00000000000000	-0.07321000000000	0.00000000000000	23.02710000000000	0.00000000000000	0.00000000000000	5.93763700000000	0.00000000000000	
5.85165300000000	-51.80493600000000	681.36364800000001	43.51427800000000	0.12484000000000	0.00000000000000	0.11734200000000	3.34537900000000	209.62300300000001	5.44859300000000	0.41071800000000	0.00000000000000	-0.07344700000000	0.00000000000000	22.80108700000000	0.00000000000000	0.00000000000000	5.61753300000000	0.00000000000000	
5.85331700000000	-51.97301000000000	675.48515799999996	42.59529300000000	0.12469400000000	0.00000000000000	0.11720000000000	4.71731700000000	216.35663299999999	4.72573000000000	0.41144400000000	0.00000000000000	-0.07367900000000	0.00000000000000	22.57498600000000	0.00000000000000	0.00000000000000	5.27264800000000	0.00000000000000	
